<svg width="12" height="18" viewBox="0 0 12 18" fill="none" xmlns="http://www.w3.org/2000/svg">
<path fill-rule="evenodd" clip-rule="evenodd" d="M0.43063 0.772203C1.12364 -0.0996826 2.40776 -0.25675 3.29877 0.421383L8.34761 4.26394C8.3818 4.28996 8.41593 4.31593 8.44999 4.34183C9.31574 5.00051 10.1323 5.62172 10.7133 6.21283C11.3543 6.86485 12 7.76529 12 9C12 10.2347 11.3543 11.1352 10.7133 11.7872C10.1323 12.3783 9.31573 12.9995 8.44998 13.6582C8.41593 13.6841 8.3818 13.71 8.34761 13.7361L3.29877 17.5786C2.40776 18.2567 1.12364 18.0997 0.43063 17.2278C-0.262384 16.3559 -0.10187 15.0994 0.789148 14.4212L5.83798 10.5787C6.84335 9.81353 7.41675 9.3708 7.76728 9.01422C7.77202 9.0094 7.77665 9.00466 7.78117 9C7.77665 8.99534 7.77202 8.9906 7.76728 8.98578C7.41675 8.6292 6.84335 8.18647 5.83799 7.42131L0.789148 3.57876C-0.10187 2.90063 -0.262384 1.64409 0.43063 0.772203Z" fill="black"/>
</svg>
