<svg width="12" height="18" viewBox="0 0 12 18" fill="none" xmlns="http://www.w3.org/2000/svg">
<path fill-rule="evenodd" clip-rule="evenodd" d="M11.5694 0.772203C10.8764 -0.0996826 9.59224 -0.25675 8.70123 0.421383L3.65239 4.26394C3.6182 4.28996 3.58407 4.31593 3.55001 4.34183C2.68426 5.00051 1.86774 5.62172 1.28668 6.21283C0.645749 6.86485 0 7.76529 0 9C0 10.2347 0.64575 11.1352 1.28668 11.7872C1.86775 12.3783 2.68427 12.9995 3.55002 13.6582C3.58407 13.6841 3.6182 13.71 3.65239 13.7361L8.70123 17.5786C9.59224 18.2567 10.8764 18.0997 11.5694 17.2278C12.2624 16.3559 12.1019 15.0994 11.2109 14.4212L6.16202 10.5787C5.15665 9.81353 4.58325 9.3708 4.23272 9.01422C4.22798 9.0094 4.22335 9.00466 4.21883 9C4.22335 8.99534 4.22798 8.9906 4.23272 8.98578C4.58325 8.6292 5.15665 8.18647 6.16201 7.42131L11.2109 3.57876C12.1019 2.90063 12.2624 1.64409 11.5694 0.772203Z" fill="black"/>
</svg>
